<svg width="105" height="27" viewBox="0 0 105 27" fill="none" xmlns="http://www.w3.org/2000/svg">
<g clip-path="url(#clip0_32_40)">
<path d="M16.4352 0.300293C19.0245 0.300293 20.4941 2.13216 20.4941 4.17541C20.4941 7.38117 18.0098 9.45963 13.5309 9.45963C12.9011 9.45963 12.2013 9.42439 11.4664 9.38921C11.4315 8.64939 11.3965 7.94481 11.3965 7.3107C11.3965 2.8015 13.4609 0.300293 16.4352 0.300293Z" fill="#87D447"/>
<path d="M16.4352 20.7325C13.4609 20.7325 11.3965 18.2313 11.3965 13.7221C11.3965 13.088 11.4315 12.3835 11.4665 11.6436C12.2013 11.6084 12.9011 11.5732 13.531 11.5732C18.0098 11.5732 20.4941 13.6516 20.4941 16.8574C20.4941 18.9006 19.0245 20.7325 16.4352 20.7325Z" fill="#50AFCD"/>
<path d="M4.2584 20.7325C1.66907 20.7325 0.199463 18.9006 0.199463 16.8574C0.199463 13.6516 2.68382 11.5732 7.16265 11.5732C7.79248 11.5732 8.49227 11.6084 9.2271 11.6436C9.2621 12.3835 9.2971 13.088 9.2971 13.7221C9.2971 18.2313 7.23262 20.7325 4.2584 20.7325Z" fill="#EFAA02"/>
<path d="M4.2584 0.300293C7.23262 0.300293 9.2971 2.8015 9.2971 7.3107C9.2971 7.94481 9.2621 8.64939 9.2271 9.38921C8.49227 9.42439 7.79248 9.45963 7.16265 9.45963C2.68382 9.45963 0.199463 7.38117 0.199463 4.17541C0.199463 2.13216 1.66907 0.300293 4.2584 0.300293Z" fill="#D95423"/>
<path fill-rule="evenodd" clip-rule="evenodd" d="M32.9188 18.8529V19.1965C32.9188 19.9122 32.5506 20.7424 30.8506 20.7424C29.9159 20.7424 29.2641 20.3989 28.981 19.6259C28.641 20.313 27.791 20.7139 26.7995 20.7139C24.3916 20.7139 23.1167 18.767 23.1167 13.6995C23.1167 8.63204 24.3916 6.68518 26.7995 6.68518C27.9327 6.68518 28.5842 7.14325 28.811 7.68725V0.615626C28.811 0.300694 29.0376 0.0716553 29.3492 0.0716553H31.7573C32.0689 0.0716553 32.2955 0.300694 32.2955 0.615626V17.9367C32.2955 18.5952 32.4938 18.8529 32.9188 18.8529ZM27.9892 18.1087C28.3294 18.1087 28.5842 18.0228 28.8108 17.9083V9.49106C28.5842 9.3765 28.3294 9.29062 27.9892 9.29062C27.1962 9.29062 26.6012 9.6342 26.6012 13.6997C26.6012 17.7365 27.1962 18.1087 27.9892 18.1087ZM43.0325 19.1967V18.8531C42.6075 18.8531 42.4092 18.5954 42.4092 17.9369V10.7222C42.4092 7.91642 40.9644 6.65672 38.2449 6.65672C35.9217 6.65672 34.1086 7.85914 34.1086 10.579C34.1086 11.0944 34.477 11.2661 34.817 11.2661H36.5733C36.97 11.2661 37.1117 11.0371 37.0832 10.4931C37.0549 9.89191 37.1966 9.17615 38.1032 9.17615C38.9248 9.17615 39.123 9.77736 39.123 10.4645V12.6118C38.6697 12.5258 38.1598 12.44 37.4233 12.44C34.6468 12.44 33.627 14.4441 33.627 16.5627C33.627 18.7672 34.477 20.7426 36.7717 20.7426C37.9898 20.7426 38.8965 20.3704 39.2647 19.5975C39.4912 20.3991 40.0012 20.7426 40.9361 20.7426C42.6643 20.7426 43.0325 19.9124 43.0325 19.1967ZM37.9898 18.4805C38.4431 18.5091 38.8114 18.3373 39.123 18.1083V14.4722C38.8114 14.4436 38.5563 14.4436 38.3015 14.4436C37.2531 14.4722 36.9132 15.2739 36.9132 16.5908C36.9132 17.8506 37.2531 18.4232 37.9898 18.4805ZM47.7353 20.0269V7.37242C47.7353 7.05749 47.5086 6.82846 47.1969 6.82846H44.789C44.4774 6.82846 44.2506 7.05749 44.2506 7.37242V20.0269C44.2506 20.3418 44.4774 20.5709 44.789 20.5709H47.1969C47.5086 20.5709 47.7353 20.3418 47.7353 20.0269ZM45.9788 1.07367C46.9986 1.07367 47.7919 1.8753 47.7919 2.90598C47.7919 3.90803 46.9986 4.73829 45.9788 4.73829C44.9873 4.73829 44.1657 3.90803 44.1657 2.90598C44.1657 1.8753 44.9873 1.07367 45.9788 1.07367ZM53.0329 20.0267V0.615626C53.0329 0.300694 52.8063 0.0716553 52.4947 0.0716553H50.0866C49.775 0.0716553 49.5484 0.300694 49.5484 0.615626V20.0267C49.5484 20.3417 49.775 20.5707 50.0866 20.5707H52.4947C52.8063 20.5707 53.0329 20.3417 53.0329 20.0267ZM63.9965 7.37242V20.6569C63.9965 24.8367 62.41 26.9553 58.6989 26.9553C57.7074 26.9553 55.8943 26.6117 55.8943 25.982V23.9779C55.8943 23.6916 56.0358 23.5483 56.2908 23.5483C56.4608 23.5483 56.7159 23.6343 56.9707 23.7487C57.3392 23.8919 57.8491 24.0065 58.3022 24.0065C60.0021 24.0065 60.512 23.0044 60.512 20.7999V19.712C59.9738 20.2273 59.0389 20.7426 57.8774 20.7426C55.7809 20.7426 54.8177 19.4829 54.8177 17.1639V7.37242C54.8177 7.05749 55.0442 6.82846 55.3559 6.82846H57.764C58.0756 6.82846 58.3022 7.05749 58.3022 7.37242V17.078C58.3022 17.7937 58.6138 18.08 59.2088 18.08C59.5771 18.08 60.087 17.9655 60.512 17.7365V7.37242C60.512 7.05749 60.7386 6.82846 61.0502 6.82846H63.4583C63.7699 6.82846 63.9965 7.05749 63.9965 7.37242ZM74.9884 20.0267V10.2353C74.9884 7.91628 74.0251 6.65655 71.9572 6.65655C70.7389 6.65655 69.7759 7.28641 69.2941 7.83039V0.615626C69.2941 0.300694 69.0675 0.0716553 68.7559 0.0716553H66.3478C66.0361 0.0716553 65.8096 0.300694 65.8096 0.615626V20.0267C65.8096 20.3417 66.0361 20.5707 66.3478 20.5707H68.7559C69.0675 20.5707 69.2941 20.3417 69.2941 20.0267V9.66274C69.7474 9.43363 70.2573 9.31914 70.6257 9.31914C71.2205 9.31914 71.5039 9.60547 71.5039 10.3212V20.0267C71.5039 20.3417 71.7304 20.5707 72.0421 20.5707H74.4502C74.7618 20.5707 74.9884 20.3417 74.9884 20.0267ZM86.5474 18.853V19.1966C86.5474 19.9124 86.1789 20.7426 84.4788 20.7426C83.516 20.7426 82.8644 20.3704 82.5813 19.5688C82.0429 20.1414 81.0792 20.7426 79.8043 20.7426C77.7085 20.7426 76.7449 19.4829 76.7449 17.1639V7.37242C76.7449 7.05749 76.9719 6.82846 77.2833 6.82846H79.6912C80.0032 6.82846 80.2296 7.05749 80.2296 7.37242V17.078C80.2296 17.7937 80.5408 18.08 81.1362 18.08C81.5045 18.08 82.0139 17.9655 82.4392 17.7365V7.37242C82.4392 7.05749 82.6655 6.82846 82.9776 6.82846H85.3855C85.6969 6.82846 85.9239 7.05749 85.9239 7.37242V17.9369C85.9239 18.5954 86.1221 18.853 86.5474 18.853ZM96.9443 20.0269V10.2354C96.9443 7.91642 95.9808 6.65672 93.9131 6.65672C92.6093 6.65672 91.7033 7.25795 91.1649 7.80195C90.9668 7.14342 90.3714 6.82851 89.6917 6.82851H88.3037C87.9916 6.82851 87.7653 7.05753 87.7653 7.37246V20.0269C87.7653 20.3418 87.9916 20.5709 88.3037 20.5709H90.7115C91.023 20.5709 91.25 20.3418 91.25 20.0269V9.66289C91.7033 9.43384 92.2128 9.31929 92.5812 9.31929C93.1764 9.31929 93.4598 9.60561 93.4598 10.3214V20.0269C93.4598 20.3418 93.6859 20.5709 93.998 20.5709H96.4061C96.7173 20.5709 96.9443 20.3418 96.9443 20.0269ZM104.281 9.17615H102.837V17.2784C102.837 17.9369 103.006 18.2232 103.517 18.2232C103.735 18.2232 103.871 18.1812 104.083 18.115C104.119 18.104 104.156 18.0923 104.196 18.08C104.236 18.0666 104.273 18.0532 104.308 18.0405C104.421 17.9991 104.513 17.9656 104.621 17.9656C104.848 17.9656 104.99 18.08 104.99 18.4236V18.9962C104.99 19.5975 104.82 19.9124 104.508 20.1128C103.743 20.5995 103.035 20.7712 101.958 20.7712C100.259 20.7712 99.3524 19.8837 99.3524 18.1087V9.17615H98.3887C98.0773 9.17615 97.8503 8.9471 97.8503 8.63219V7.37244C97.8503 7.05751 98.0773 6.82846 98.3887 6.82846H99.3524V4.05136C99.3524 3.73643 99.5785 3.5074 99.8906 3.5074H102.299C102.61 3.5074 102.837 3.73643 102.837 4.05136V6.82846H104.281C104.593 6.82846 104.82 7.05751 104.82 7.37244V8.63219C104.82 8.9471 104.593 9.17615 104.281 9.17615Z" fill="white"/>
</g>
<defs>
<clipPath id="clip0_32_40">
<rect width="105" height="27" fill="white"/>
</clipPath>
</defs>
</svg>
